<svg width="150" height="150" viewBox="0 0 150 150" fill="none" xmlns="http://www.w3.org/2000/svg">
<path d="M70.7812 4.92188C43.5938 6.5625 29.2969 22.0313 28.125 49.9219H55.5469C55.7813 40.3125 61.4062 33.0469 71.25 31.875C81.0938 30.9375 90.4688 33.2813 93.2812 39.8438C96.3281 47.1094 89.5312 55.5469 86.25 59.0625C80.1562 65.625 70.3125 70.5469 65.1562 77.5781C60.2344 84.6094 59.2969 93.75 58.8281 105H82.9688C83.2031 97.7344 83.6719 90.9375 86.9531 86.4844C92.3438 79.2188 100.312 75.9375 106.875 70.0781C113.203 64.6875 120 58.125 120.938 47.8125C124.922 17.5781 100.078 3.04688 70.7812 4.92188Z" fill="#CCD2D3"/>
<path d="M71.4844 145.312C79.8981 145.312 86.7188 138.597 86.7188 130.312C86.7188 122.028 79.8981 115.312 71.4844 115.312C63.0707 115.312 56.25 122.028 56.25 130.312C56.25 138.597 63.0707 145.312 71.4844 145.312Z" fill="#C9D1D3"/>
</svg>
